<svg width="102" height="102" viewBox="0 0 102 102" fill="none" xmlns="http://www.w3.org/2000/svg">
<g clip-path="url(#clip0_5_1132)">
<path d="M49.9581 6.86646e-05H51.8307C59.6023 0.151475 67.3439 2.03608 74.2568 5.60409C84.417 10.7838 92.7304 19.4857 97.4299 29.8789C100.311 36.1702 101.827 43.0552 102 49.9661V51.8388C101.845 60.1542 99.6771 68.4337 95.627 75.7032C91.9076 82.4228 86.6462 88.2819 80.3668 92.7025C72.0853 98.5795 62.0068 101.823 51.8606 102H50.1553C40.7283 101.831 31.355 99.0417 23.4341 93.9158C13.1345 87.3256 5.33707 76.9184 1.99816 65.1486C0.737109 60.8355 0.115547 56.3511 0 51.8627V50.006C0.187266 41.7424 2.3468 33.5206 6.37301 26.295C10.5148 18.8163 16.567 12.4034 23.8027 7.85128C31.5881 2.90269 40.7442 0.211241 49.9581 6.86646e-05ZM48.6512 8.03854C40.6845 8.46487 32.8253 11.1304 26.3228 15.7662C22.3105 18.5932 18.7664 22.0855 15.9355 26.0977C10.0187 34.2398 7.27348 44.5653 8.12813 54.578C8.68195 61.5547 10.9989 68.3799 14.792 74.2608C17.5552 78.4385 20.9459 82.2296 24.9721 85.2239C33.1719 91.6267 43.8221 94.6907 54.1736 93.9058C62.465 93.3101 70.6011 90.2721 77.1495 85.1322C78.6994 84.0465 80.0322 82.6918 81.4307 81.4248C82.6957 80.0282 84.0484 78.6974 85.1321 77.1475C90.272 70.5992 93.3141 62.4651 93.9057 54.1716C94.6429 44.4677 91.9893 34.5227 86.3992 26.546C85.413 25.2789 84.5425 23.9183 83.4308 22.7548C79.7094 18.4796 75.1393 14.9335 70.0593 12.4114C63.4611 9.13026 56.0044 7.64011 48.6512 8.03854Z" fill="#009739"/>
<path d="M67.7996 34.9337C68.8734 33.7921 70.6206 33.3339 72.0968 33.9057C73.8419 34.5213 74.9914 36.4577 74.6468 38.2845C74.4954 39.4121 73.7364 40.3126 72.9375 41.0636C64.2635 49.7257 55.6054 58.3996 46.9335 67.0597C45.9075 68.1474 44.2759 68.6295 42.8415 68.1673C41.8315 67.8904 41.0944 67.1115 40.3871 66.3883C36.4765 62.4717 32.5578 58.561 28.6452 54.6444C27.9758 53.9949 27.4598 53.1562 27.3403 52.2199C27.1052 50.7457 27.8005 49.1858 29.0356 48.357C30.1353 47.594 31.6275 47.4586 32.8507 47.9964C33.7053 48.3511 34.3269 49.0603 34.9684 49.6998C37.9766 52.71 40.9828 55.7221 43.995 58.7284C51.9358 50.8034 59.8588 42.8606 67.7996 34.9337Z" fill="#009739"/>
</g>
<defs>
<clipPath id="clip0_5_1132">
<rect width="102" height="102" fill="white"/>
</clipPath>
</defs>
</svg>
